<svg width="244" height="215" viewBox="0 0 244 215" fill="none" xmlns="http://www.w3.org/2000/svg">
<path d="M93.927 6.57022C94.7247 6.87127 95.5223 7.17231 96.3442 7.48248C106.111 11.3938 114.344 18.0455 121.679 25.4702C123.542 27.0451 124.821 27.6584 127.202 28.1627C127.865 28.0594 128.528 27.9562 129.211 27.8499C131.23 27.8616 131.23 27.8616 133.199 29.5083C134.163 30.6053 134.163 30.6053 135.147 31.7245C137.864 34.7827 137.864 34.7827 140.939 37.4619C142.721 38.8624 143.704 40.1222 144.91 42.0247C148.094 46.8677 151.586 51.3609 155.507 55.6323C157.694 58.0517 159.703 60.5473 161.66 63.1548C162.184 63.8511 162.708 64.5474 163.248 65.2647C164.328 66.7081 165.4 68.1579 166.463 69.6134C166.985 70.3012 167.507 70.989 168.045 71.6976C168.741 72.6362 168.741 72.6362 169.45 73.5938C170.866 75.0988 170.866 75.0988 172.872 75.0688C175.214 74.5655 177.306 73.8523 179.531 72.9649C180.412 72.6175 181.293 72.27 182.201 71.912C183.138 71.5369 184.074 71.1617 185.039 70.7752C186.508 70.1966 187.976 69.6179 189.444 69.0404C190.438 68.6496 191.431 68.2581 192.425 67.866C197.111 66.016 201.811 64.2051 206.523 62.4216C207.221 62.1535 207.918 61.8854 208.637 61.6092C219.878 57.3652 219.878 57.3652 224.873 58.4577C224.022 78.7746 214.698 109.277 199.869 123.802C197.373 126.083 194.826 128.301 192.254 130.498C190.527 131.976 188.825 133.474 187.134 134.992C184.156 137.66 181.135 140.276 178.106 142.886C176.4 144.373 174.713 145.877 173.031 147.391C168.893 151.089 164.591 154.582 160.294 158.093C159.379 158.846 159.379 158.846 158.445 159.613C157.894 160.064 157.344 160.514 156.776 160.978C155.4 162.089 155.4 162.089 154.48 163.609C166.337 167.196 178.171 169.152 190.439 170.66C191.175 170.753 191.911 170.846 192.669 170.942C194.795 171.207 196.921 171.46 199.048 171.708C199.687 171.787 200.325 171.866 200.983 171.947C206.911 172.601 210.861 171.676 215.955 168.471C220.611 165.635 225.353 163.014 230.204 160.523C230.843 160.184 231.482 159.845 232.141 159.496C235.983 157.548 238.784 156.594 243.113 156.985C244.694 159.002 243.364 163.456 243.071 165.925C242.026 173.661 240.289 181.248 238.551 188.852C238.405 189.502 238.259 190.152 238.109 190.822C237.682 192.711 237.243 194.597 236.8 196.483C236.674 197.046 236.547 197.608 236.417 198.188C235.463 202.142 233.942 205.382 231.944 208.93C228.039 208.065 225.54 206.392 222.594 203.803C222.161 203.435 221.728 203.068 221.281 202.689C218.982 200.738 216.716 198.752 214.456 196.758C214.013 196.375 213.571 195.991 213.114 195.597C212.27 194.866 211.434 194.126 210.609 193.374C207.591 190.775 205.446 190.331 201.527 190.075C199.36 190.237 197.264 190.449 195.117 190.743C194.512 190.82 193.907 190.897 193.283 190.977C191.355 191.223 189.428 191.479 187.502 191.735C184.987 192.064 182.472 192.388 179.957 192.711C179.337 192.792 178.717 192.872 178.078 192.955C172.824 193.624 167.56 194.142 162.282 194.592C159.429 194.647 159.429 194.647 156.922 195.739C154.813 195.861 152.713 195.945 150.602 196.008C144.688 196.216 138.813 196.586 132.929 197.216C129.701 197.539 126.707 197.673 123.478 197.321C113.352 196.438 107.609 200.538 100.116 206.762C98.164 208.407 96.2359 210.075 94.326 211.768C92.4952 213.293 92.4952 213.293 89.9432 214.571C85.4415 213.617 82.1771 209.163 79.0121 206.067C78.4236 205.492 78.4236 205.492 77.8231 204.905C72.4153 199.595 67.1917 194.137 62.0637 188.559C60.0877 186.413 58.073 184.307 56.0449 182.209C49.4387 175.348 43.0379 168.301 36.8068 161.1C35.3994 159.481 33.972 157.885 32.5319 156.295C27.0361 150.181 21.716 143.938 16.6294 137.482C16.2719 137.03 15.9145 136.578 15.5462 136.113C12.3981 132.079 12.3981 132.079 12.3443 128.899C13.0829 125.817 14.3106 124.655 16.6162 122.578C17.7236 121.395 17.7236 121.395 17.5187 119.837C17.1364 117.972 16.5299 116.62 15.6294 114.944C15.1515 114.036 15.1515 114.036 14.6638 113.109C14.3211 112.463 13.9784 111.817 13.6252 111.151C8.67693 101.546 4.57219 91.8991 2.16612 81.3454C2.04408 80.8108 1.92203 80.2762 1.79629 79.7254C-1.58833 63.3999 0.971262 46.1031 9.7141 31.9619C12.8022 27.4134 16.4647 23.6019 20.4472 19.8294C21.3266 18.9034 21.3266 18.9034 22.2237 17.9587C42.1194 0.0846873 69.4766 -3.9299 93.927 6.57022Z" fill="#BB8A52" fill-opacity="0.1"/>
</svg>
